<svg width="486" height="533" viewBox="0 -20 506 573" fill="none" xmlns="http://www.w3.org/2000/svg">
    <path
        d="M 101.3 420 L 177.9 499.6 L 269.3 532.1 L 360.7 499.6 L 394.6 420 L 428.6 299.1 L 456.6 216.6 L 484.6 151.7 V 97.2 L 441.8 85.4 L 416.8 111.9 L 394.6 166.5 L 369.6 216.6 V 72.1 V 32.3 L 351.9 1.4 H 320.9 L 300.3 24.9 V 72.1 V 216.6 L 292.9 151.7 L 284.1 72.1 L 269.3 24.9 L 244.3 1.4 L 198.6 14.6 V 53 L 213.3 111.9 L 232.5 226.9 L 206 166.5 L 186.8 111.9 L 160.3 53 L 135.2 32.3 L 101.3 53 V 97.2 L 135.2 185.6 L 167.6 291.8 V 321.3 L 145.5 340.4 L 101.3 291.8 L 68.9 243.1 L 33.5 226.9 L 1 252 V 299.1 L 52.6 362.5 L 101.3 420 Z"
        fill="#171615" />
</svg>