<svg width="453" height="491" viewBox="0 0 453 491" fill="none" xmlns="http://www.w3.org/2000/svg">
    <path
        d="M100.89 391.285L172.143 465.328L258.854 489.541L342.182 465.328L373.715 391.285L405.342 278.824L421.692 202.083L439.785 141.714L450.986 91.0186L431.387 84.5998L405.342 122.509L380.942 176.789L356.876 202.083L344.15 137.156L333.811 67.3682L325.195 23.7657L314.857 1.90601L297.625 1.90618L292.456 23.7657V72.5377V137.156L286.424 210.39L271.778 141.714L257.131 84.5998L233.907 23.7657L210.606 7.05782L198.281 13.0889V49.9041L210.606 104.692L222.931 176.789V219.867L193.374 171.619L172.696 122.509L148.572 67.3682L121.863 35.4899L100.89 49.9041L109.801 84.5998L148.572 191.435L162.562 272.034V299.475L142.005 317.241L117.555 308.61L77.9228 278.824L53.7987 247.438L27.9513 225.898L1.24245 247.438L7.59174 278.824L59.8297 334.457L100.89 391.285Z"
        fill="#070605" />
</svg>
    