<svg width="486" height="533" viewBox="0 0 486 533" fill="none" xmlns="http://www.w3.org/2000/svg">
<path d="M101.284 420.024L177.942 499.63L269.342 532.062L360.741 499.63L394.647 420.024L428.554 299.14L456.563 216.586L484.573 151.722V97.1767L441.821 85.3833L416.76 111.919L394.647 166.463L369.586 216.586V72.1157V32.3127L351.896 1.35474H320.938L300.299 24.9417V72.1157V216.586L292.928 151.722L284.083 72.1157L269.342 24.9417L244.28 1.35474L198.581 14.6223V52.9512L213.322 111.919L232.487 226.905L205.952 166.463L186.787 111.919L160.252 52.9512L135.191 32.3127L101.284 52.9512V97.1767L135.191 185.628L167.623 291.769V321.253L145.51 340.417L101.284 291.769L68.8522 243.121L33.4717 226.905L1.03955 251.966V299.14L52.6362 362.53L101.284 420.024Z" stroke-width="2" stroke="#6d4931"/>
</svg>
