<svg class="logo" width="194" height="193" viewBox="0 0 194 193" fill="none" xmlns="http://www.w3.org/2000/svg">
    <path class="frame"
        d="M0.837402 30.2505C0.837402 13.682 14.2689 0.250488 30.8374 0.250488H163.5C180.069 0.250488 193.5 13.6819 193.5 30.2505V162.913C193.5 179.482 180.069 192.913 163.5 192.913H30.8374C14.2689 192.913 0.837402 179.482 0.837402 162.913V30.2505Z"
        fill="black" />
    <path class="face"
        d="M182.255 165.596C182.255 169.408 180.62 173.063 177.711 175.758C174.801 178.453 170.855 179.967 166.741 179.967H27.1142C22.9996 179.967 19.0535 178.453 16.1441 175.758C13.2346 173.063 11.6001 169.408 11.6001 165.596V86.5578C11.6001 82.7464 13.2346 79.0912 16.1441 76.3962C19.0535 73.7011 22.9996 72.1871 27.1142 72.1871H44.8631C53.2006 72.1871 61.029 68.1762 65.8993 61.4091V61.4091C70.7696 54.642 78.598 50.6311 86.9355 50.6311H106.919C115.257 50.6311 123.085 54.642 127.956 61.4091V61.4091C132.826 68.1762 140.654 72.1871 148.992 72.1871H166.741C170.855 72.1871 174.801 73.7011 177.711 76.3962C180.62 79.0912 182.255 82.7464 182.255 86.5578V165.596Z"
        fill="#F7C496" />
    <path class="eye-left"
        d="M81.5732 108.351C80.6269 109.296 76.7627 114.217 75.6893 115.015C74.2871 116.057 72.4528 116.088 71.0068 115.107C68.926 113.698 68.4583 110.773 70.1254 108.892C71.3016 107.561 72.573 106.318 73.9294 105.171"
        fill="black" />
    <path class="eye-right"
        d="M116.823 107.263C117.769 108.208 120.625 113.395 121.699 114.192C123.101 115.235 124.935 115.265 126.381 114.285C128.462 112.876 128.93 109.95 127.263 108.07C126.086 106.739 124.815 105.495 123.459 104.349"
        fill="black" />
    <path class="eyebrow-left"
        d="M67.9375 100.018C70.0379 99.7517 72.1484 99.5711 74.2636 99.4773C76.0337 99.4019 77.8027 99.569 79.5524 99.8442C80.5157 99.9964 81.5079 100.148 82.529 100.3C83.975 100.514 85.3853 100.942 86.6703 101.642C87.5331 102.11 88.4441 102.629 89.4033 103.196C89.8629 103.467 90.2328 103.867 90.4713 104.344C91.4047 106.211 90.0474 108.406 87.9614 108.397C79.3561 108.361 70.7514 108.221 62.1494 107.979C59.0292 107.891 56.3675 105.188 57.7523 102.391"
        fill="black" />
    <path class="eyebrow-right"
        d="M117.487 99.1961C119.588 98.9293 121.698 98.7488 123.813 98.655C125.583 98.5796 127.353 98.7467 129.102 99.0218C130.066 99.174 131.058 99.3258 132.079 99.4773C133.525 99.6913 134.935 100.119 136.22 100.819C137.083 101.288 137.994 101.806 138.953 102.373C139.413 102.644 139.783 103.045 140.021 103.522C140.954 105.389 139.597 107.584 137.511 107.575C128.906 107.538 120.301 107.399 111.699 107.157C108.579 107.069 105.917 104.366 107.302 101.568"
        fill="black" />
    <path class="mouth"
        d="M92.9648 157.851C95.0653 158.118 97.1757 158.298 99.291 158.392C101.061 158.467 102.83 158.3 104.58 158.025C105.543 157.873 106.535 157.721 107.556 157.57C109.002 157.356 110.413 156.928 111.698 156.227C112.56 155.759 113.471 155.241 114.431 154.673C114.89 154.402 115.26 154.002 115.499 153.525C116.432 151.658 115.075 149.463 112.989 149.472C104.383 149.509 95.7788 149.648 87.1768 149.89C84.0565 149.978 81.3948 152.681 82.7797 155.479"
        fill="black" />
    <path class="nose"
        d="M111.075 127.459C111.075 134.072 105.714 139.433 99.1012 139.433C92.4884 139.433 87.1276 134.072 87.1276 127.459C87.1276 120.846 92.4884 115.486 99.1012 115.486C105.714 115.486 111.075 120.846 111.075 127.459Z"
        fill="black" />
</svg>    